<mxfile host="app.diagrams.net" modified="2021-07-03T23:02:09.516Z" agent="5.0 (Macintosh; Intel Mac OS X 10_15_7) AppleWebKit/537.36 (KHTML, like Gecko) Chrome/91.0.4472.114 Safari/537.36" etag="k8D8p6cU6r2p1AaDOn8m" version="14.8.0" type="github">
  <diagram id="bXb1NenM_AdI7LzZEwRG" name="Page-1">
    <mxGraphModel dx="1316" dy="1041" grid="1" gridSize="10" guides="1" tooltips="1" connect="1" arrows="1" fold="1" page="1" pageScale="1" pageWidth="1169" pageHeight="827" math="0" shadow="0">
      <root>
        <mxCell id="0" />
        <mxCell id="1" parent="0" />
        <mxCell id="aOV9hmeAfIXfkGsddctS-69" value="" style="shape=table;startSize=0;container=1;collapsible=0;childLayout=tableLayout;fontSize=17;" vertex="1" parent="1">
          <mxGeometry x="10" y="310" width="240" height="248" as="geometry" />
        </mxCell>
        <mxCell id="aOV9hmeAfIXfkGsddctS-70" value="" style="shape=partialRectangle;collapsible=0;dropTarget=0;pointerEvents=0;fillColor=none;top=0;left=0;bottom=0;right=0;points=[[0,0.5],[1,0.5]];portConstraint=eastwest;fontSize=17;" vertex="1" parent="aOV9hmeAfIXfkGsddctS-69">
          <mxGeometry width="240" height="40" as="geometry" />
        </mxCell>
        <mxCell id="aOV9hmeAfIXfkGsddctS-71" value="follows" style="shape=partialRectangle;html=1;whiteSpace=wrap;connectable=0;overflow=hidden;fillColor=#fff2cc;top=0;left=0;bottom=0;right=0;strokeColor=#d6b656;fontSize=17;" vertex="1" parent="aOV9hmeAfIXfkGsddctS-70">
          <mxGeometry width="240" height="40" as="geometry" />
        </mxCell>
        <mxCell id="aOV9hmeAfIXfkGsddctS-72" value="" style="shape=partialRectangle;collapsible=0;dropTarget=0;pointerEvents=0;fillColor=none;top=0;left=0;bottom=0;right=0;points=[[0,0.5],[1,0.5]];portConstraint=eastwest;fontSize=17;" vertex="1" parent="aOV9hmeAfIXfkGsddctS-69">
          <mxGeometry y="40" width="240" height="41" as="geometry" />
        </mxCell>
        <mxCell id="aOV9hmeAfIXfkGsddctS-73" value="&lt;meta charset=&quot;utf-8&quot;&gt;&lt;span style=&quot;color: rgb(0, 0, 0); font-family: helvetica; font-size: 17px; font-style: normal; font-weight: 400; letter-spacing: normal; text-align: center; text-indent: 0px; text-transform: none; word-spacing: 0px; background-color: rgb(248, 249, 250); display: inline; float: none;&quot;&gt;PK: id&lt;/span&gt;" style="shape=partialRectangle;html=1;whiteSpace=wrap;connectable=0;overflow=hidden;fillColor=none;top=0;left=0;bottom=0;right=0;fontSize=17;" vertex="1" parent="aOV9hmeAfIXfkGsddctS-72">
          <mxGeometry width="240" height="41" as="geometry" />
        </mxCell>
        <mxCell id="aOV9hmeAfIXfkGsddctS-74" value="" style="shape=partialRectangle;collapsible=0;dropTarget=0;pointerEvents=0;fillColor=none;top=0;left=0;bottom=0;right=0;points=[[0,0.5],[1,0.5]];portConstraint=eastwest;fontSize=17;" vertex="1" parent="aOV9hmeAfIXfkGsddctS-69">
          <mxGeometry y="81" width="240" height="42" as="geometry" />
        </mxCell>
        <mxCell id="aOV9hmeAfIXfkGsddctS-75" value="FK: follower_id" style="shape=partialRectangle;html=1;whiteSpace=wrap;connectable=0;overflow=hidden;fillColor=#f8cecc;top=0;left=0;bottom=0;right=0;fontSize=17;strokeColor=#b85450;" vertex="1" parent="aOV9hmeAfIXfkGsddctS-74">
          <mxGeometry width="240" height="42" as="geometry" />
        </mxCell>
        <mxCell id="aOV9hmeAfIXfkGsddctS-146" style="shape=partialRectangle;collapsible=0;dropTarget=0;pointerEvents=0;fillColor=none;top=0;left=0;bottom=0;right=0;points=[[0,0.5],[1,0.5]];portConstraint=eastwest;fontSize=17;" vertex="1" parent="aOV9hmeAfIXfkGsddctS-69">
          <mxGeometry y="123" width="240" height="42" as="geometry" />
        </mxCell>
        <mxCell id="aOV9hmeAfIXfkGsddctS-147" value="FK: following_id" style="shape=partialRectangle;html=1;whiteSpace=wrap;connectable=0;overflow=hidden;fillColor=#f8cecc;top=0;left=0;bottom=0;right=0;fontSize=17;strokeColor=#b85450;" vertex="1" parent="aOV9hmeAfIXfkGsddctS-146">
          <mxGeometry width="240" height="42" as="geometry" />
        </mxCell>
        <mxCell id="aOV9hmeAfIXfkGsddctS-76" value="" style="shape=partialRectangle;collapsible=0;dropTarget=0;pointerEvents=0;fillColor=none;top=0;left=0;bottom=0;right=0;points=[[0,0.5],[1,0.5]];portConstraint=eastwest;fontSize=17;" vertex="1" parent="aOV9hmeAfIXfkGsddctS-69">
          <mxGeometry y="165" width="240" height="42" as="geometry" />
        </mxCell>
        <mxCell id="aOV9hmeAfIXfkGsddctS-77" value="&lt;meta charset=&quot;utf-8&quot;&gt;&lt;span style=&quot;color: rgb(0, 0, 0); font-family: helvetica; font-size: 17px; font-style: normal; font-weight: 400; letter-spacing: normal; text-align: center; text-indent: 0px; text-transform: none; word-spacing: 0px; background-color: rgb(248, 249, 250); display: inline; float: none;&quot;&gt;createdAt&lt;/span&gt;" style="shape=partialRectangle;html=1;whiteSpace=wrap;connectable=0;overflow=hidden;fillColor=none;top=0;left=0;bottom=0;right=0;fontSize=17;" vertex="1" parent="aOV9hmeAfIXfkGsddctS-76">
          <mxGeometry width="240" height="42" as="geometry" />
        </mxCell>
        <mxCell id="aOV9hmeAfIXfkGsddctS-78" value="" style="shape=partialRectangle;collapsible=0;dropTarget=0;pointerEvents=0;fillColor=none;top=0;left=0;bottom=0;right=0;points=[[0,0.5],[1,0.5]];portConstraint=eastwest;fontSize=17;" vertex="1" parent="aOV9hmeAfIXfkGsddctS-69">
          <mxGeometry y="207" width="240" height="41" as="geometry" />
        </mxCell>
        <mxCell id="aOV9hmeAfIXfkGsddctS-79" value="&lt;span&gt;updatedAt&lt;/span&gt;" style="shape=partialRectangle;html=1;whiteSpace=wrap;connectable=0;overflow=hidden;fillColor=none;top=0;left=0;bottom=0;right=0;fontSize=17;" vertex="1" parent="aOV9hmeAfIXfkGsddctS-78">
          <mxGeometry width="240" height="41" as="geometry" />
        </mxCell>
        <mxCell id="aOV9hmeAfIXfkGsddctS-82" value="" style="shape=table;startSize=0;container=1;collapsible=0;childLayout=tableLayout;fontSize=17;" vertex="1" parent="1">
          <mxGeometry x="310" y="180" width="240" height="500" as="geometry" />
        </mxCell>
        <mxCell id="aOV9hmeAfIXfkGsddctS-83" value="" style="shape=partialRectangle;collapsible=0;dropTarget=0;pointerEvents=0;fillColor=none;top=0;left=0;bottom=0;right=0;points=[[0,0.5],[1,0.5]];portConstraint=eastwest;fontSize=17;" vertex="1" parent="aOV9hmeAfIXfkGsddctS-82">
          <mxGeometry width="240" height="42" as="geometry" />
        </mxCell>
        <mxCell id="aOV9hmeAfIXfkGsddctS-84" value="users" style="shape=partialRectangle;html=1;whiteSpace=wrap;connectable=0;overflow=hidden;fillColor=#fff2cc;top=0;left=0;bottom=0;right=0;strokeColor=#d6b656;fontSize=17;" vertex="1" parent="aOV9hmeAfIXfkGsddctS-83">
          <mxGeometry width="240" height="42" as="geometry" />
        </mxCell>
        <mxCell id="aOV9hmeAfIXfkGsddctS-85" value="" style="shape=partialRectangle;collapsible=0;dropTarget=0;pointerEvents=0;fillColor=none;top=0;left=0;bottom=0;right=0;points=[[0,0.5],[1,0.5]];portConstraint=eastwest;fontSize=17;" vertex="1" parent="aOV9hmeAfIXfkGsddctS-82">
          <mxGeometry y="42" width="240" height="41" as="geometry" />
        </mxCell>
        <mxCell id="aOV9hmeAfIXfkGsddctS-86" value="PK: id" style="shape=partialRectangle;html=1;whiteSpace=wrap;connectable=0;overflow=hidden;fillColor=none;top=0;left=0;bottom=0;right=0;fontSize=17;" vertex="1" parent="aOV9hmeAfIXfkGsddctS-85">
          <mxGeometry width="240" height="41" as="geometry" />
        </mxCell>
        <mxCell id="aOV9hmeAfIXfkGsddctS-142" style="shape=partialRectangle;collapsible=0;dropTarget=0;pointerEvents=0;fillColor=none;top=0;left=0;bottom=0;right=0;points=[[0,0.5],[1,0.5]];portConstraint=eastwest;fontSize=17;" vertex="1" parent="aOV9hmeAfIXfkGsddctS-82">
          <mxGeometry y="83" width="240" height="41" as="geometry" />
        </mxCell>
        <mxCell id="aOV9hmeAfIXfkGsddctS-143" value="is_Admin" style="shape=partialRectangle;html=1;whiteSpace=wrap;connectable=0;overflow=hidden;fillColor=none;top=0;left=0;bottom=0;right=0;fontSize=17;" vertex="1" parent="aOV9hmeAfIXfkGsddctS-142">
          <mxGeometry width="240" height="41" as="geometry" />
        </mxCell>
        <mxCell id="aOV9hmeAfIXfkGsddctS-144" style="shape=partialRectangle;collapsible=0;dropTarget=0;pointerEvents=0;fillColor=none;top=0;left=0;bottom=0;right=0;points=[[0,0.5],[1,0.5]];portConstraint=eastwest;fontSize=17;" vertex="1" parent="aOV9hmeAfIXfkGsddctS-82">
          <mxGeometry y="124" width="240" height="41" as="geometry" />
        </mxCell>
        <mxCell id="aOV9hmeAfIXfkGsddctS-145" value="account" style="shape=partialRectangle;html=1;whiteSpace=wrap;connectable=0;overflow=hidden;fillColor=none;top=0;left=0;bottom=0;right=0;fontSize=17;" vertex="1" parent="aOV9hmeAfIXfkGsddctS-144">
          <mxGeometry width="240" height="41" as="geometry" />
        </mxCell>
        <mxCell id="aOV9hmeAfIXfkGsddctS-87" value="" style="shape=partialRectangle;collapsible=0;dropTarget=0;pointerEvents=0;fillColor=none;top=0;left=0;bottom=0;right=0;points=[[0,0.5],[1,0.5]];portConstraint=eastwest;fontSize=17;" vertex="1" parent="aOV9hmeAfIXfkGsddctS-82">
          <mxGeometry y="165" width="240" height="42" as="geometry" />
        </mxCell>
        <mxCell id="aOV9hmeAfIXfkGsddctS-88" value="name" style="shape=partialRectangle;html=1;whiteSpace=wrap;connectable=0;overflow=hidden;fillColor=none;top=0;left=0;bottom=0;right=0;fontSize=17;" vertex="1" parent="aOV9hmeAfIXfkGsddctS-87">
          <mxGeometry width="240" height="42" as="geometry" />
        </mxCell>
        <mxCell id="aOV9hmeAfIXfkGsddctS-89" value="" style="shape=partialRectangle;collapsible=0;dropTarget=0;pointerEvents=0;fillColor=none;top=0;left=0;bottom=0;right=0;points=[[0,0.5],[1,0.5]];portConstraint=eastwest;fontSize=17;" vertex="1" parent="aOV9hmeAfIXfkGsddctS-82">
          <mxGeometry y="207" width="240" height="42" as="geometry" />
        </mxCell>
        <mxCell id="aOV9hmeAfIXfkGsddctS-90" value="email" style="shape=partialRectangle;html=1;whiteSpace=wrap;connectable=0;overflow=hidden;fillColor=none;top=0;left=0;bottom=0;right=0;fontSize=17;" vertex="1" parent="aOV9hmeAfIXfkGsddctS-89">
          <mxGeometry width="240" height="42" as="geometry" />
        </mxCell>
        <mxCell id="aOV9hmeAfIXfkGsddctS-91" value="" style="shape=partialRectangle;collapsible=0;dropTarget=0;pointerEvents=0;fillColor=none;top=0;left=0;bottom=0;right=0;points=[[0,0.5],[1,0.5]];portConstraint=eastwest;fontSize=17;" vertex="1" parent="aOV9hmeAfIXfkGsddctS-82">
          <mxGeometry y="249" width="240" height="41" as="geometry" />
        </mxCell>
        <mxCell id="aOV9hmeAfIXfkGsddctS-92" value="password" style="shape=partialRectangle;html=1;whiteSpace=wrap;connectable=0;overflow=hidden;fillColor=none;top=0;left=0;bottom=0;right=0;fontSize=17;" vertex="1" parent="aOV9hmeAfIXfkGsddctS-91">
          <mxGeometry width="240" height="41" as="geometry" />
        </mxCell>
        <mxCell id="aOV9hmeAfIXfkGsddctS-93" value="" style="shape=partialRectangle;collapsible=0;dropTarget=0;pointerEvents=0;fillColor=none;top=0;left=0;bottom=0;right=0;points=[[0,0.5],[1,0.5]];portConstraint=eastwest;fontSize=17;" vertex="1" parent="aOV9hmeAfIXfkGsddctS-82">
          <mxGeometry y="290" width="240" height="42" as="geometry" />
        </mxCell>
        <mxCell id="aOV9hmeAfIXfkGsddctS-94" value="bio" style="shape=partialRectangle;html=1;whiteSpace=wrap;connectable=0;overflow=hidden;fillColor=none;top=0;left=0;bottom=0;right=0;fontSize=17;" vertex="1" parent="aOV9hmeAfIXfkGsddctS-93">
          <mxGeometry width="240" height="42" as="geometry" />
        </mxCell>
        <mxCell id="aOV9hmeAfIXfkGsddctS-134" style="shape=partialRectangle;collapsible=0;dropTarget=0;pointerEvents=0;fillColor=none;top=0;left=0;bottom=0;right=0;points=[[0,0.5],[1,0.5]];portConstraint=eastwest;fontSize=17;" vertex="1" parent="aOV9hmeAfIXfkGsddctS-82">
          <mxGeometry y="332" width="240" height="42" as="geometry" />
        </mxCell>
        <mxCell id="aOV9hmeAfIXfkGsddctS-135" value="user_avatar" style="shape=partialRectangle;html=1;whiteSpace=wrap;connectable=0;overflow=hidden;fillColor=none;top=0;left=0;bottom=0;right=0;fontSize=17;" vertex="1" parent="aOV9hmeAfIXfkGsddctS-134">
          <mxGeometry width="240" height="42" as="geometry" />
        </mxCell>
        <mxCell id="aOV9hmeAfIXfkGsddctS-136" style="shape=partialRectangle;collapsible=0;dropTarget=0;pointerEvents=0;fillColor=none;top=0;left=0;bottom=0;right=0;points=[[0,0.5],[1,0.5]];portConstraint=eastwest;fontSize=17;" vertex="1" parent="aOV9hmeAfIXfkGsddctS-82">
          <mxGeometry y="374" width="240" height="42" as="geometry" />
        </mxCell>
        <mxCell id="aOV9hmeAfIXfkGsddctS-137" value="bg_image" style="shape=partialRectangle;html=1;whiteSpace=wrap;connectable=0;overflow=hidden;fillColor=none;top=0;left=0;bottom=0;right=0;fontSize=17;" vertex="1" parent="aOV9hmeAfIXfkGsddctS-136">
          <mxGeometry width="240" height="42" as="geometry" />
        </mxCell>
        <mxCell id="aOV9hmeAfIXfkGsddctS-140" style="shape=partialRectangle;collapsible=0;dropTarget=0;pointerEvents=0;fillColor=none;top=0;left=0;bottom=0;right=0;points=[[0,0.5],[1,0.5]];portConstraint=eastwest;fontSize=17;" vertex="1" parent="aOV9hmeAfIXfkGsddctS-82">
          <mxGeometry y="416" width="240" height="42" as="geometry" />
        </mxCell>
        <mxCell id="aOV9hmeAfIXfkGsddctS-141" value="createdAt" style="shape=partialRectangle;html=1;whiteSpace=wrap;connectable=0;overflow=hidden;fillColor=none;top=0;left=0;bottom=0;right=0;fontSize=17;" vertex="1" parent="aOV9hmeAfIXfkGsddctS-140">
          <mxGeometry width="240" height="42" as="geometry" />
        </mxCell>
        <mxCell id="aOV9hmeAfIXfkGsddctS-138" style="shape=partialRectangle;collapsible=0;dropTarget=0;pointerEvents=0;fillColor=none;top=0;left=0;bottom=0;right=0;points=[[0,0.5],[1,0.5]];portConstraint=eastwest;fontSize=17;" vertex="1" parent="aOV9hmeAfIXfkGsddctS-82">
          <mxGeometry y="458" width="240" height="42" as="geometry" />
        </mxCell>
        <mxCell id="aOV9hmeAfIXfkGsddctS-139" value="updatedAt" style="shape=partialRectangle;html=1;whiteSpace=wrap;connectable=0;overflow=hidden;fillColor=none;top=0;left=0;bottom=0;right=0;fontSize=17;" vertex="1" parent="aOV9hmeAfIXfkGsddctS-138">
          <mxGeometry width="240" height="42" as="geometry" />
        </mxCell>
        <mxCell id="aOV9hmeAfIXfkGsddctS-95" value="" style="shape=table;startSize=0;container=1;collapsible=0;childLayout=tableLayout;fontSize=17;" vertex="1" parent="1">
          <mxGeometry x="600" y="250" width="240" height="330" as="geometry" />
        </mxCell>
        <mxCell id="aOV9hmeAfIXfkGsddctS-96" value="" style="shape=partialRectangle;collapsible=0;dropTarget=0;pointerEvents=0;fillColor=none;top=0;left=0;bottom=0;right=0;points=[[0,0.5],[1,0.5]];portConstraint=eastwest;fontSize=17;" vertex="1" parent="aOV9hmeAfIXfkGsddctS-95">
          <mxGeometry width="240" height="42" as="geometry" />
        </mxCell>
        <mxCell id="aOV9hmeAfIXfkGsddctS-97" value="tweets" style="shape=partialRectangle;html=1;whiteSpace=wrap;connectable=0;overflow=hidden;fillColor=#fff2cc;top=0;left=0;bottom=0;right=0;strokeColor=#d6b656;fontSize=17;" vertex="1" parent="aOV9hmeAfIXfkGsddctS-96">
          <mxGeometry width="240" height="42" as="geometry" />
        </mxCell>
        <mxCell id="aOV9hmeAfIXfkGsddctS-98" value="" style="shape=partialRectangle;collapsible=0;dropTarget=0;pointerEvents=0;fillColor=none;top=0;left=0;bottom=0;right=0;points=[[0,0.5],[1,0.5]];portConstraint=eastwest;fontSize=17;" vertex="1" parent="aOV9hmeAfIXfkGsddctS-95">
          <mxGeometry y="42" width="240" height="41" as="geometry" />
        </mxCell>
        <mxCell id="aOV9hmeAfIXfkGsddctS-99" value="&lt;span&gt;PK: id&lt;/span&gt;" style="shape=partialRectangle;html=1;whiteSpace=wrap;connectable=0;overflow=hidden;fillColor=none;top=0;left=0;bottom=0;right=0;fontSize=17;" vertex="1" parent="aOV9hmeAfIXfkGsddctS-98">
          <mxGeometry width="240" height="41" as="geometry" />
        </mxCell>
        <mxCell id="aOV9hmeAfIXfkGsddctS-100" value="" style="shape=partialRectangle;collapsible=0;dropTarget=0;pointerEvents=0;fillColor=none;top=0;left=0;bottom=0;right=0;points=[[0,0.5],[1,0.5]];portConstraint=eastwest;fontSize=17;" vertex="1" parent="aOV9hmeAfIXfkGsddctS-95">
          <mxGeometry y="83" width="240" height="42" as="geometry" />
        </mxCell>
        <mxCell id="aOV9hmeAfIXfkGsddctS-101" value="content" style="shape=partialRectangle;html=1;whiteSpace=wrap;connectable=0;overflow=hidden;fillColor=none;top=0;left=0;bottom=0;right=0;fontSize=17;" vertex="1" parent="aOV9hmeAfIXfkGsddctS-100">
          <mxGeometry width="240" height="42" as="geometry" />
        </mxCell>
        <mxCell id="aOV9hmeAfIXfkGsddctS-158" style="shape=partialRectangle;collapsible=0;dropTarget=0;pointerEvents=0;fillColor=none;top=0;left=0;bottom=0;right=0;points=[[0,0.5],[1,0.5]];portConstraint=eastwest;fontSize=17;" vertex="1" parent="aOV9hmeAfIXfkGsddctS-95">
          <mxGeometry y="125" width="240" height="40" as="geometry" />
        </mxCell>
        <mxCell id="aOV9hmeAfIXfkGsddctS-159" value="likeCount" style="shape=partialRectangle;html=1;whiteSpace=wrap;connectable=0;overflow=hidden;fillColor=none;top=0;left=0;bottom=0;right=0;fontSize=17;" vertex="1" parent="aOV9hmeAfIXfkGsddctS-158">
          <mxGeometry width="240" height="40" as="geometry" />
        </mxCell>
        <mxCell id="aOV9hmeAfIXfkGsddctS-160" style="shape=partialRectangle;collapsible=0;dropTarget=0;pointerEvents=0;fillColor=none;top=0;left=0;bottom=0;right=0;points=[[0,0.5],[1,0.5]];portConstraint=eastwest;fontSize=17;" vertex="1" parent="aOV9hmeAfIXfkGsddctS-95">
          <mxGeometry y="165" width="240" height="40" as="geometry" />
        </mxCell>
        <mxCell id="aOV9hmeAfIXfkGsddctS-161" value="replyCount" style="shape=partialRectangle;html=1;whiteSpace=wrap;connectable=0;overflow=hidden;fillColor=none;top=0;left=0;bottom=0;right=0;fontSize=17;" vertex="1" parent="aOV9hmeAfIXfkGsddctS-160">
          <mxGeometry width="240" height="40" as="geometry" />
        </mxCell>
        <mxCell id="aOV9hmeAfIXfkGsddctS-104" value="" style="shape=partialRectangle;collapsible=0;dropTarget=0;pointerEvents=0;fillColor=none;top=0;left=0;bottom=0;right=0;points=[[0,0.5],[1,0.5]];portConstraint=eastwest;fontSize=17;" vertex="1" parent="aOV9hmeAfIXfkGsddctS-95">
          <mxGeometry y="205" width="240" height="41" as="geometry" />
        </mxCell>
        <mxCell id="aOV9hmeAfIXfkGsddctS-105" value="&lt;span&gt;createdAt&lt;/span&gt;" style="shape=partialRectangle;html=1;whiteSpace=wrap;connectable=0;overflow=hidden;fillColor=none;top=0;left=0;bottom=0;right=0;fontSize=17;" vertex="1" parent="aOV9hmeAfIXfkGsddctS-104">
          <mxGeometry width="240" height="41" as="geometry" />
        </mxCell>
        <mxCell id="aOV9hmeAfIXfkGsddctS-106" value="" style="shape=partialRectangle;collapsible=0;dropTarget=0;pointerEvents=0;fillColor=none;top=0;left=0;bottom=0;right=0;points=[[0,0.5],[1,0.5]];portConstraint=eastwest;fontSize=17;" vertex="1" parent="aOV9hmeAfIXfkGsddctS-95">
          <mxGeometry y="246" width="240" height="42" as="geometry" />
        </mxCell>
        <mxCell id="aOV9hmeAfIXfkGsddctS-107" value="&lt;span&gt;updatedAt&lt;/span&gt;" style="shape=partialRectangle;html=1;whiteSpace=wrap;connectable=0;overflow=hidden;fillColor=none;top=0;left=0;bottom=0;right=0;fontSize=17;" vertex="1" parent="aOV9hmeAfIXfkGsddctS-106">
          <mxGeometry width="240" height="42" as="geometry" />
        </mxCell>
        <mxCell id="aOV9hmeAfIXfkGsddctS-164" style="shape=partialRectangle;collapsible=0;dropTarget=0;pointerEvents=0;fillColor=none;top=0;left=0;bottom=0;right=0;points=[[0,0.5],[1,0.5]];portConstraint=eastwest;fontSize=17;" vertex="1" parent="aOV9hmeAfIXfkGsddctS-95">
          <mxGeometry y="288" width="240" height="42" as="geometry" />
        </mxCell>
        <mxCell id="aOV9hmeAfIXfkGsddctS-165" value="FK : user_id" style="shape=partialRectangle;html=1;whiteSpace=wrap;connectable=0;overflow=hidden;fillColor=#f8cecc;top=0;left=0;bottom=0;right=0;fontSize=17;strokeColor=#b85450;" vertex="1" parent="aOV9hmeAfIXfkGsddctS-164">
          <mxGeometry width="240" height="42" as="geometry" />
        </mxCell>
        <mxCell id="aOV9hmeAfIXfkGsddctS-108" value="" style="shape=table;startSize=0;container=1;collapsible=0;childLayout=tableLayout;fontSize=17;" vertex="1" parent="1">
          <mxGeometry x="900" y="50" width="240" height="250" as="geometry" />
        </mxCell>
        <mxCell id="aOV9hmeAfIXfkGsddctS-109" value="" style="shape=partialRectangle;collapsible=0;dropTarget=0;pointerEvents=0;fillColor=none;top=0;left=0;bottom=0;right=0;points=[[0,0.5],[1,0.5]];portConstraint=eastwest;fontSize=17;" vertex="1" parent="aOV9hmeAfIXfkGsddctS-108">
          <mxGeometry width="240" height="42" as="geometry" />
        </mxCell>
        <mxCell id="aOV9hmeAfIXfkGsddctS-110" value="likes" style="shape=partialRectangle;html=1;whiteSpace=wrap;connectable=0;overflow=hidden;fillColor=#fff2cc;top=0;left=0;bottom=0;right=0;strokeColor=#d6b656;fontSize=17;" vertex="1" parent="aOV9hmeAfIXfkGsddctS-109">
          <mxGeometry width="240" height="42" as="geometry" />
        </mxCell>
        <mxCell id="aOV9hmeAfIXfkGsddctS-111" value="" style="shape=partialRectangle;collapsible=0;dropTarget=0;pointerEvents=0;fillColor=none;top=0;left=0;bottom=0;right=0;points=[[0,0.5],[1,0.5]];portConstraint=eastwest;fontSize=17;" vertex="1" parent="aOV9hmeAfIXfkGsddctS-108">
          <mxGeometry y="42" width="240" height="41" as="geometry" />
        </mxCell>
        <mxCell id="aOV9hmeAfIXfkGsddctS-112" value="&lt;span&gt;PK: id&lt;/span&gt;" style="shape=partialRectangle;html=1;whiteSpace=wrap;connectable=0;overflow=hidden;fillColor=none;top=0;left=0;bottom=0;right=0;fontSize=17;" vertex="1" parent="aOV9hmeAfIXfkGsddctS-111">
          <mxGeometry width="240" height="41" as="geometry" />
        </mxCell>
        <mxCell id="aOV9hmeAfIXfkGsddctS-113" value="" style="shape=partialRectangle;collapsible=0;dropTarget=0;pointerEvents=0;fillColor=none;top=0;left=0;bottom=0;right=0;points=[[0,0.5],[1,0.5]];portConstraint=eastwest;fontSize=17;" vertex="1" parent="aOV9hmeAfIXfkGsddctS-108">
          <mxGeometry y="83" width="240" height="42" as="geometry" />
        </mxCell>
        <mxCell id="aOV9hmeAfIXfkGsddctS-114" value="FK : user_id" style="shape=partialRectangle;html=1;whiteSpace=wrap;connectable=0;overflow=hidden;fillColor=#f8cecc;top=0;left=0;bottom=0;right=0;fontSize=17;strokeColor=#b85450;" vertex="1" parent="aOV9hmeAfIXfkGsddctS-113">
          <mxGeometry width="240" height="42" as="geometry" />
        </mxCell>
        <mxCell id="aOV9hmeAfIXfkGsddctS-115" value="" style="shape=partialRectangle;collapsible=0;dropTarget=0;pointerEvents=0;fillColor=none;top=0;left=0;bottom=0;right=0;points=[[0,0.5],[1,0.5]];portConstraint=eastwest;fontSize=17;" vertex="1" parent="aOV9hmeAfIXfkGsddctS-108">
          <mxGeometry y="125" width="240" height="42" as="geometry" />
        </mxCell>
        <mxCell id="aOV9hmeAfIXfkGsddctS-116" value="FK : tweet_id" style="shape=partialRectangle;html=1;whiteSpace=wrap;connectable=0;overflow=hidden;fillColor=#f8cecc;top=0;left=0;bottom=0;right=0;fontSize=17;strokeColor=#b85450;" vertex="1" parent="aOV9hmeAfIXfkGsddctS-115">
          <mxGeometry width="240" height="42" as="geometry" />
        </mxCell>
        <mxCell id="aOV9hmeAfIXfkGsddctS-117" value="" style="shape=partialRectangle;collapsible=0;dropTarget=0;pointerEvents=0;fillColor=none;top=0;left=0;bottom=0;right=0;points=[[0,0.5],[1,0.5]];portConstraint=eastwest;fontSize=17;" vertex="1" parent="aOV9hmeAfIXfkGsddctS-108">
          <mxGeometry y="167" width="240" height="41" as="geometry" />
        </mxCell>
        <mxCell id="aOV9hmeAfIXfkGsddctS-118" value="&lt;span&gt;createdAt&lt;/span&gt;" style="shape=partialRectangle;html=1;whiteSpace=wrap;connectable=0;overflow=hidden;fillColor=none;top=0;left=0;bottom=0;right=0;fontSize=17;" vertex="1" parent="aOV9hmeAfIXfkGsddctS-117">
          <mxGeometry width="240" height="41" as="geometry" />
        </mxCell>
        <mxCell id="aOV9hmeAfIXfkGsddctS-119" value="" style="shape=partialRectangle;collapsible=0;dropTarget=0;pointerEvents=0;fillColor=none;top=0;left=0;bottom=0;right=0;points=[[0,0.5],[1,0.5]];portConstraint=eastwest;fontSize=17;" vertex="1" parent="aOV9hmeAfIXfkGsddctS-108">
          <mxGeometry y="208" width="240" height="42" as="geometry" />
        </mxCell>
        <mxCell id="aOV9hmeAfIXfkGsddctS-120" value="&lt;span&gt;updatedAt&lt;/span&gt;" style="shape=partialRectangle;html=1;whiteSpace=wrap;connectable=0;overflow=hidden;fillColor=none;top=0;left=0;bottom=0;right=0;fontSize=17;" vertex="1" parent="aOV9hmeAfIXfkGsddctS-119">
          <mxGeometry width="240" height="42" as="geometry" />
        </mxCell>
        <mxCell id="aOV9hmeAfIXfkGsddctS-121" value="" style="shape=table;startSize=0;container=1;collapsible=0;childLayout=tableLayout;fontSize=17;" vertex="1" parent="1">
          <mxGeometry x="895" y="490" width="250" height="278" as="geometry" />
        </mxCell>
        <mxCell id="aOV9hmeAfIXfkGsddctS-122" value="" style="shape=partialRectangle;collapsible=0;dropTarget=0;pointerEvents=0;fillColor=none;top=0;left=0;bottom=0;right=0;points=[[0,0.5],[1,0.5]];portConstraint=eastwest;fontSize=17;" vertex="1" parent="aOV9hmeAfIXfkGsddctS-121">
          <mxGeometry width="250" height="41" as="geometry" />
        </mxCell>
        <mxCell id="aOV9hmeAfIXfkGsddctS-123" value="replies" style="shape=partialRectangle;html=1;whiteSpace=wrap;connectable=0;overflow=hidden;fillColor=#fff2cc;top=0;left=0;bottom=0;right=0;strokeColor=#d6b656;fontSize=17;" vertex="1" parent="aOV9hmeAfIXfkGsddctS-122">
          <mxGeometry width="250" height="41" as="geometry" />
        </mxCell>
        <mxCell id="aOV9hmeAfIXfkGsddctS-124" value="" style="shape=partialRectangle;collapsible=0;dropTarget=0;pointerEvents=0;fillColor=none;top=0;left=0;bottom=0;right=0;points=[[0,0.5],[1,0.5]];portConstraint=eastwest;fontSize=17;" vertex="1" parent="aOV9hmeAfIXfkGsddctS-121">
          <mxGeometry y="41" width="250" height="38" as="geometry" />
        </mxCell>
        <mxCell id="aOV9hmeAfIXfkGsddctS-125" value="&lt;span&gt;PK: id&lt;/span&gt;" style="shape=partialRectangle;html=1;whiteSpace=wrap;connectable=0;overflow=hidden;fillColor=none;top=0;left=0;bottom=0;right=0;fontSize=17;" vertex="1" parent="aOV9hmeAfIXfkGsddctS-124">
          <mxGeometry width="250" height="38" as="geometry" />
        </mxCell>
        <mxCell id="aOV9hmeAfIXfkGsddctS-172" style="shape=partialRectangle;collapsible=0;dropTarget=0;pointerEvents=0;fillColor=none;top=0;left=0;bottom=0;right=0;points=[[0,0.5],[1,0.5]];portConstraint=eastwest;fontSize=17;" vertex="1" parent="aOV9hmeAfIXfkGsddctS-121">
          <mxGeometry y="79" width="250" height="38" as="geometry" />
        </mxCell>
        <mxCell id="aOV9hmeAfIXfkGsddctS-173" value="content" style="shape=partialRectangle;html=1;whiteSpace=wrap;connectable=0;overflow=hidden;fillColor=none;top=0;left=0;bottom=0;right=0;fontSize=17;" vertex="1" parent="aOV9hmeAfIXfkGsddctS-172">
          <mxGeometry width="250" height="38" as="geometry" />
        </mxCell>
        <mxCell id="aOV9hmeAfIXfkGsddctS-126" value="" style="shape=partialRectangle;collapsible=0;dropTarget=0;pointerEvents=0;fillColor=none;top=0;left=0;bottom=0;right=0;points=[[0,0.5],[1,0.5]];portConstraint=eastwest;fontSize=17;" vertex="1" parent="aOV9hmeAfIXfkGsddctS-121">
          <mxGeometry y="117" width="250" height="41" as="geometry" />
        </mxCell>
        <mxCell id="aOV9hmeAfIXfkGsddctS-127" value="&lt;span&gt;FK : user_id&lt;/span&gt;" style="shape=partialRectangle;html=1;whiteSpace=wrap;connectable=0;overflow=hidden;fillColor=#f8cecc;top=0;left=0;bottom=0;right=0;fontSize=17;strokeColor=#b85450;" vertex="1" parent="aOV9hmeAfIXfkGsddctS-126">
          <mxGeometry width="250" height="41" as="geometry" />
        </mxCell>
        <mxCell id="aOV9hmeAfIXfkGsddctS-128" value="" style="shape=partialRectangle;collapsible=0;dropTarget=0;pointerEvents=0;fillColor=none;top=0;left=0;bottom=0;right=0;points=[[0,0.5],[1,0.5]];portConstraint=eastwest;fontSize=17;" vertex="1" parent="aOV9hmeAfIXfkGsddctS-121">
          <mxGeometry y="158" width="250" height="41" as="geometry" />
        </mxCell>
        <mxCell id="aOV9hmeAfIXfkGsddctS-129" value="&lt;span&gt;FK : tweet_id&lt;/span&gt;" style="shape=partialRectangle;html=1;whiteSpace=wrap;connectable=0;overflow=hidden;fillColor=#f8cecc;top=0;left=0;bottom=0;right=0;fontSize=17;strokeColor=#b85450;" vertex="1" parent="aOV9hmeAfIXfkGsddctS-128">
          <mxGeometry width="250" height="41" as="geometry" />
        </mxCell>
        <mxCell id="aOV9hmeAfIXfkGsddctS-130" value="" style="shape=partialRectangle;collapsible=0;dropTarget=0;pointerEvents=0;fillColor=none;top=0;left=0;bottom=0;right=0;points=[[0,0.5],[1,0.5]];portConstraint=eastwest;fontSize=17;" vertex="1" parent="aOV9hmeAfIXfkGsddctS-121">
          <mxGeometry y="199" width="250" height="38" as="geometry" />
        </mxCell>
        <mxCell id="aOV9hmeAfIXfkGsddctS-131" value="createdAt" style="shape=partialRectangle;html=1;whiteSpace=wrap;connectable=0;overflow=hidden;fillColor=none;top=0;left=0;bottom=0;right=0;fontSize=17;" vertex="1" parent="aOV9hmeAfIXfkGsddctS-130">
          <mxGeometry width="250" height="38" as="geometry" />
        </mxCell>
        <mxCell id="aOV9hmeAfIXfkGsddctS-132" value="" style="shape=partialRectangle;collapsible=0;dropTarget=0;pointerEvents=0;fillColor=none;top=0;left=0;bottom=0;right=0;points=[[0,0.5],[1,0.5]];portConstraint=eastwest;fontSize=17;" vertex="1" parent="aOV9hmeAfIXfkGsddctS-121">
          <mxGeometry y="237" width="250" height="41" as="geometry" />
        </mxCell>
        <mxCell id="aOV9hmeAfIXfkGsddctS-133" value="updatedAt" style="shape=partialRectangle;html=1;whiteSpace=wrap;connectable=0;overflow=hidden;fillColor=none;top=0;left=0;bottom=0;right=0;fontSize=17;" vertex="1" parent="aOV9hmeAfIXfkGsddctS-132">
          <mxGeometry width="250" height="41" as="geometry" />
        </mxCell>
        <mxCell id="aOV9hmeAfIXfkGsddctS-148" style="edgeStyle=orthogonalEdgeStyle;rounded=0;orthogonalLoop=1;jettySize=auto;html=1;exitX=0;exitY=0.5;exitDx=0;exitDy=0;fontSize=17;entryX=1;entryY=0.5;entryDx=0;entryDy=0;" edge="1" parent="1" source="aOV9hmeAfIXfkGsddctS-85" target="aOV9hmeAfIXfkGsddctS-74">
          <mxGeometry relative="1" as="geometry">
            <mxPoint x="280" y="420" as="targetPoint" />
            <Array as="points">
              <mxPoint x="310" y="250" />
              <mxPoint x="280" y="250" />
              <mxPoint x="280" y="412" />
            </Array>
          </mxGeometry>
        </mxCell>
        <mxCell id="aOV9hmeAfIXfkGsddctS-157" value="M" style="edgeLabel;html=1;align=center;verticalAlign=middle;resizable=0;points=[];fontSize=17;" vertex="1" connectable="0" parent="aOV9hmeAfIXfkGsddctS-148">
          <mxGeometry x="0.6427" y="2" relative="1" as="geometry">
            <mxPoint x="8" as="offset" />
          </mxGeometry>
        </mxCell>
        <mxCell id="aOV9hmeAfIXfkGsddctS-149" style="edgeStyle=orthogonalEdgeStyle;rounded=0;orthogonalLoop=1;jettySize=auto;html=1;fontSize=17;entryX=1.004;entryY=0.667;entryDx=0;entryDy=0;entryPerimeter=0;exitX=0;exitY=0.5;exitDx=0;exitDy=0;" edge="1" parent="1" source="aOV9hmeAfIXfkGsddctS-85" target="aOV9hmeAfIXfkGsddctS-146">
          <mxGeometry relative="1" as="geometry">
            <mxPoint x="270" y="470" as="targetPoint" />
            <mxPoint x="300" y="240" as="sourcePoint" />
            <Array as="points">
              <mxPoint x="310" y="240" />
              <mxPoint x="270" y="240" />
              <mxPoint x="270" y="461" />
            </Array>
          </mxGeometry>
        </mxCell>
        <mxCell id="aOV9hmeAfIXfkGsddctS-154" value="1" style="text;html=1;resizable=0;autosize=1;align=center;verticalAlign=middle;points=[];fillColor=none;strokeColor=none;rounded=0;fontSize=17;" vertex="1" parent="1">
          <mxGeometry x="260" y="205" width="20" height="30" as="geometry" />
        </mxCell>
        <mxCell id="aOV9hmeAfIXfkGsddctS-155" value="1" style="text;html=1;align=center;verticalAlign=middle;resizable=0;points=[];autosize=1;strokeColor=none;fontSize=17;" vertex="1" parent="1">
          <mxGeometry x="290" y="255" width="20" height="30" as="geometry" />
        </mxCell>
        <mxCell id="aOV9hmeAfIXfkGsddctS-156" value="M" style="text;html=1;align=center;verticalAlign=middle;resizable=0;points=[];autosize=1;strokeColor=none;fontSize=17;" vertex="1" parent="1">
          <mxGeometry x="255" y="455" width="30" height="30" as="geometry" />
        </mxCell>
        <mxCell id="aOV9hmeAfIXfkGsddctS-167" value="" style="edgeStyle=elbowEdgeStyle;rounded=0;orthogonalLoop=1;jettySize=auto;html=1;fontSize=17;entryX=0;entryY=0.5;entryDx=0;entryDy=0;" edge="1" parent="1" source="aOV9hmeAfIXfkGsddctS-85" target="aOV9hmeAfIXfkGsddctS-164">
          <mxGeometry relative="1" as="geometry" />
        </mxCell>
        <mxCell id="aOV9hmeAfIXfkGsddctS-168" value="1" style="text;html=1;align=center;verticalAlign=middle;resizable=0;points=[];autosize=1;strokeColor=none;fontSize=17;" vertex="1" parent="1">
          <mxGeometry x="575" y="255" width="20" height="30" as="geometry" />
        </mxCell>
        <mxCell id="aOV9hmeAfIXfkGsddctS-169" value="M" style="text;html=1;align=center;verticalAlign=middle;resizable=0;points=[];autosize=1;strokeColor=none;fontSize=17;" vertex="1" parent="1">
          <mxGeometry x="565" y="555" width="30" height="30" as="geometry" />
        </mxCell>
        <mxCell id="aOV9hmeAfIXfkGsddctS-174" value="" style="edgeStyle=elbowEdgeStyle;rounded=0;orthogonalLoop=1;jettySize=auto;html=1;fontSize=17;exitX=1.008;exitY=0.341;exitDx=0;exitDy=0;exitPerimeter=0;" edge="1" parent="1" source="aOV9hmeAfIXfkGsddctS-85">
          <mxGeometry relative="1" as="geometry">
            <mxPoint x="890" y="160" as="targetPoint" />
            <Array as="points">
              <mxPoint x="590" y="160" />
            </Array>
          </mxGeometry>
        </mxCell>
        <mxCell id="aOV9hmeAfIXfkGsddctS-176" value="1" style="edgeLabel;html=1;align=center;verticalAlign=middle;resizable=0;points=[];fontSize=17;" vertex="1" connectable="0" parent="aOV9hmeAfIXfkGsddctS-174">
          <mxGeometry x="-0.6994" relative="1" as="geometry">
            <mxPoint y="1" as="offset" />
          </mxGeometry>
        </mxCell>
        <mxCell id="aOV9hmeAfIXfkGsddctS-177" value="M" style="edgeLabel;html=1;align=center;verticalAlign=middle;resizable=0;points=[];fontSize=17;" vertex="1" connectable="0" parent="aOV9hmeAfIXfkGsddctS-174">
          <mxGeometry x="0.8485" y="1" relative="1" as="geometry">
            <mxPoint x="1" as="offset" />
          </mxGeometry>
        </mxCell>
        <mxCell id="aOV9hmeAfIXfkGsddctS-178" value="" style="edgeStyle=elbowEdgeStyle;rounded=0;orthogonalLoop=1;jettySize=auto;html=1;fontSize=17;" edge="1" parent="1">
          <mxGeometry relative="1" as="geometry">
            <mxPoint x="840" y="310" as="sourcePoint" />
            <mxPoint x="890" y="200" as="targetPoint" />
          </mxGeometry>
        </mxCell>
        <mxCell id="aOV9hmeAfIXfkGsddctS-181" value="" style="edgeStyle=elbowEdgeStyle;rounded=0;orthogonalLoop=1;jettySize=auto;html=1;fontSize=17;entryX=0;entryY=0.5;entryDx=0;entryDy=0;exitX=1;exitY=0.732;exitDx=0;exitDy=0;exitPerimeter=0;" edge="1" parent="1" source="aOV9hmeAfIXfkGsddctS-98" target="aOV9hmeAfIXfkGsddctS-128">
          <mxGeometry relative="1" as="geometry">
            <mxPoint x="972" y="319.01" as="sourcePoint" />
            <Array as="points">
              <mxPoint x="860" y="350" />
              <mxPoint x="850" y="350" />
              <mxPoint x="860" y="440" />
              <mxPoint x="860" y="360" />
              <mxPoint x="870" y="450" />
              <mxPoint x="855" y="430" />
              <mxPoint x="850" y="370" />
              <mxPoint x="850" y="320" />
            </Array>
          </mxGeometry>
        </mxCell>
        <mxCell id="aOV9hmeAfIXfkGsddctS-180" value="M" style="text;html=1;align=center;verticalAlign=middle;resizable=0;points=[];autosize=1;strokeColor=none;fontSize=17;" vertex="1" parent="1">
          <mxGeometry x="865" y="205" width="30" height="30" as="geometry" />
        </mxCell>
        <mxCell id="aOV9hmeAfIXfkGsddctS-182" value="1&lt;br&gt;" style="text;html=1;align=center;verticalAlign=middle;resizable=0;points=[];autosize=1;strokeColor=none;fontSize=17;" vertex="1" parent="1">
          <mxGeometry x="870" y="285" width="20" height="30" as="geometry" />
        </mxCell>
        <mxCell id="aOV9hmeAfIXfkGsddctS-183" value="1" style="text;html=1;align=center;verticalAlign=middle;resizable=0;points=[];autosize=1;strokeColor=none;fontSize=17;" vertex="1" parent="1">
          <mxGeometry x="860" y="335" width="20" height="30" as="geometry" />
        </mxCell>
        <mxCell id="aOV9hmeAfIXfkGsddctS-184" value="M" style="text;html=1;align=center;verticalAlign=middle;resizable=0;points=[];autosize=1;strokeColor=none;fontSize=17;" vertex="1" parent="1">
          <mxGeometry x="855" y="595" width="30" height="30" as="geometry" />
        </mxCell>
        <mxCell id="aOV9hmeAfIXfkGsddctS-185" style="edgeStyle=elbowEdgeStyle;rounded=0;orthogonalLoop=1;jettySize=auto;html=1;fontSize=17;exitX=0.996;exitY=0.707;exitDx=0;exitDy=0;exitPerimeter=0;entryX=1.167;entryY=1;entryDx=0;entryDy=0;entryPerimeter=0;" edge="1" parent="1" source="aOV9hmeAfIXfkGsddctS-85" target="aOV9hmeAfIXfkGsddctS-184">
          <mxGeometry relative="1" as="geometry">
            <mxPoint x="870" y="630" as="targetPoint" />
            <Array as="points">
              <mxPoint x="565" y="290" />
            </Array>
          </mxGeometry>
        </mxCell>
        <mxCell id="aOV9hmeAfIXfkGsddctS-187" value="M" style="text;html=1;align=center;verticalAlign=middle;resizable=0;points=[];autosize=1;strokeColor=none;fontSize=17;" vertex="1" parent="1">
          <mxGeometry x="855" y="675" width="30" height="30" as="geometry" />
        </mxCell>
      </root>
    </mxGraphModel>
  </diagram>
</mxfile>
